<svg width="58" height="58" viewBox="0 0 58 58" fill="none" xmlns="http://www.w3.org/2000/svg">
<g clip-path="url(#clip0_4_87)">
<path d="M18.3472 38.8789V23.1324H14.707V19.0972H23.3702V38.8789H18.3472Z" fill="white" fill-opacity="0.4"/>
<path d="M42.2481 24.2042C42.2481 25.9255 41.3169 27.4493 39.7649 28.296C41.9375 29.1988 43.2922 31.0896 43.2922 33.2906C43.2922 36.8462 40.1315 39.1038 35.1933 39.1038C30.2549 39.1038 27.0945 36.8744 27.0945 33.3755C27.0945 31.1178 28.5618 29.1988 30.8475 28.296C29.1826 27.3646 28.1103 25.7846 28.1103 24.0632C28.1103 20.9024 30.8759 18.8991 35.1651 18.8991C39.5107 18.8991 42.2481 20.959 42.2481 24.2042ZM31.8352 32.8675C31.8352 34.5326 33.0205 35.4638 35.1933 35.4638C37.3661 35.4638 38.5795 34.561 38.5795 32.8675C38.5795 31.2311 37.3661 30.2995 35.1933 30.2995C33.0203 30.2995 31.8352 31.2309 31.8352 32.8675ZM32.3433 24.4863C32.3433 25.8976 33.3591 26.6874 35.1933 26.6874C37.0275 26.6874 38.0434 25.8974 38.0434 24.4863C38.0434 23.0193 37.0275 22.2008 35.1933 22.2008C33.359 22.2008 32.3433 23.0193 32.3433 24.4863Z" fill="white" fill-opacity="0.4"/>
<path d="M51.6507 21.3281C52.4858 23.7928 52.9094 26.3708 52.9094 29C52.9094 42.1836 42.1836 52.9094 28.9998 52.9094C15.816 52.9094 5.09006 42.1836 5.09006 29C5.09006 15.816 15.8159 5.09059 28.9996 5.09059C31.6292 5.09059 34.2072 5.51387 36.6715 6.34931V1.02856C34.1823 0.346204 31.6114 0 28.9998 0C13.0094 0 0 13.0094 0 29C0 44.9906 13.0094 58 28.9998 58C44.9903 58 57.9995 44.9906 57.9995 29C57.9995 26.3886 57.6534 23.8175 56.9711 21.3281H51.6507Z" fill="white" fill-opacity="0.4"/>
<path d="M50.2035 7.77911V2.21851H46.205V7.77911H40.6777V11.7773H46.205V17.3377H50.2035V11.7773H55.7638V7.77911H50.2035Z" fill="white" fill-opacity="0.4"/>
</g>
<defs>
<clipPath id="clip0_4_87">
<rect width="57.9995" height="58" fill="white"/>
</clipPath>
</defs>
</svg>
