<svg width="52" height="52" viewBox="0 0 52 52" fill="none" xmlns="http://www.w3.org/2000/svg">
<g clip-path="url(#clip0_4_37)">
<rect width="52" height="52" rx="8" fill="url(#paint0_radial_4_37)"/>
<g clip-path="url(#clip1_4_37)">
<path d="M39.8028 0H12.1845C5.4552 0 0 5.4552 0 12.1845V39.8028C0 46.5321 5.4552 51.9873 12.1845 51.9873H39.8028C46.5321 51.9873 51.9873 46.5321 51.9873 39.8028V12.1845C51.9873 5.4552 46.5321 0 39.8028 0Z" fill="url(#paint1_radial_4_37)"/>
<path d="M25.6411 11.9941C21.9433 11.9941 21.4791 12.0108 20.0269 12.0787C18.5773 12.147 17.5878 12.3829 16.7221 12.7291C15.8265 13.0867 15.0668 13.5651 14.3101 14.3435C13.5526 15.1217 13.0873 15.9028 12.7385 16.8233C12.4008 17.7136 12.1711 18.7314 12.1059 20.2212C12.0409 21.7145 12.0239 22.1919 12.0239 25.9941C12.0239 29.7964 12.0403 30.2721 12.1062 31.7653C12.1729 33.2557 12.4023 34.2731 12.7388 35.1632C13.0868 36.0841 13.552 36.8652 14.3091 37.6433C15.0657 38.4221 15.8254 38.9016 16.7204 39.2591C17.5867 39.6054 18.5764 39.8413 20.0256 39.9096C21.4781 39.9775 21.9418 39.9941 25.6395 39.9941C29.3378 39.9941 29.8004 39.9775 31.2527 39.9096C32.7023 39.8413 33.6928 39.6054 34.5592 39.2591C35.4545 38.9016 36.213 38.4221 36.9695 37.6433C37.727 36.8652 38.1921 36.0841 38.5411 35.1636C38.8758 34.2731 39.1056 33.2554 39.1737 31.7656C39.2389 30.2724 39.2559 29.7964 39.2559 25.9941C39.2559 22.1919 39.2389 21.7148 39.1737 20.2214C39.1056 18.731 38.8758 17.7138 38.5411 16.8237C38.1921 15.9028 37.727 15.1217 36.9695 14.3435C36.2122 13.5648 35.4547 13.0864 34.5584 12.7293C33.6904 12.3829 32.7004 12.1469 31.2508 12.0787C29.7984 12.0108 29.336 11.9941 25.6369 11.9941H25.6411ZM24.4197 14.5171C24.7823 14.5165 25.1868 14.5171 25.6411 14.5171C29.2768 14.5171 29.7076 14.5305 31.1432 14.5976C32.4708 14.66 33.1914 14.8881 33.6713 15.0797C34.3068 15.3334 34.7598 15.6368 35.2361 16.1269C35.7126 16.6169 36.0075 17.0835 36.255 17.7369C36.4414 18.2297 36.6634 18.9706 36.7239 20.3355C36.7891 21.8114 36.8033 22.2546 36.8033 25.9909C36.8033 29.7272 36.7891 30.1706 36.7239 31.6463C36.6632 33.0113 36.4414 33.7522 36.255 34.2451C36.0082 34.8985 35.7126 35.3637 35.2361 35.8534C34.7595 36.3434 34.307 36.6466 33.6713 36.9005C33.1919 37.093 32.4708 37.3204 31.1432 37.3829C29.7078 37.4499 29.2768 37.4645 25.6411 37.4645C22.0054 37.4645 21.5745 37.4499 20.1392 37.3829C18.8116 37.3199 18.0911 37.0918 17.6107 36.9002C16.9754 36.6464 16.5214 36.3431 16.0449 35.8531C15.5683 35.3631 15.2734 34.8976 15.026 34.244C14.8396 33.751 14.6175 33.0102 14.557 31.6452C14.4918 30.1693 14.4788 29.7261 14.4788 25.9874C14.4788 22.2488 14.4918 21.8079 14.557 20.332C14.6178 18.9671 14.8396 18.2262 15.026 17.7327C15.2728 17.0793 15.5683 16.6127 16.045 16.1227C16.5217 15.6327 16.9754 15.3293 17.6108 15.0751C18.0908 14.8826 18.8116 14.6551 20.1392 14.5924C21.3953 14.534 21.882 14.5165 24.4197 14.5136V14.5171ZM32.9094 16.8416C32.0073 16.8416 31.2754 17.5934 31.2754 18.521C31.2754 19.4485 32.0073 20.201 32.9094 20.201C33.8114 20.201 34.5433 19.4485 34.5433 18.521C34.5433 17.5935 33.8114 16.841 32.9094 16.841V16.8416ZM25.6411 18.8045C21.7797 18.8045 18.6488 22.0236 18.6488 25.9941C18.6488 29.9646 21.7797 33.1822 25.6411 33.1822C29.5028 33.1822 32.6326 29.9646 32.6326 25.9941C32.6326 22.0238 29.5025 18.8045 25.6409 18.8045H25.6411ZM25.6411 21.3274C28.1477 21.3274 30.1799 23.4166 30.1799 25.9941C30.1799 28.5714 28.1477 30.6609 25.6411 30.6609C23.1346 30.6609 21.1025 28.5714 21.1025 25.9941C21.1025 23.4166 23.1344 21.3274 25.6411 21.3274Z" fill="white"/>
</g>
</g>
<rect x="0.5" y="0.5" width="51" height="51" rx="7.5" stroke="white" stroke-opacity="0.4"/>
<defs>
<radialGradient id="paint0_radial_4_37" cx="0" cy="0" r="1" gradientUnits="userSpaceOnUse" gradientTransform="translate(13.8125 56.005) rotate(-90) scale(51.5359 47.9324)">
<stop stop-color="#FFDD55"/>
<stop offset="0.1" stop-color="#FFDD55"/>
<stop offset="0.5" stop-color="#FF543E"/>
<stop offset="1" stop-color="#C837AB"/>
</radialGradient>
<radialGradient id="paint1_radial_4_37" cx="0" cy="0" r="1" gradientUnits="userSpaceOnUse" gradientTransform="translate(13.8091 55.9913) rotate(-90) scale(51.5233 47.9207)">
<stop stop-color="#FFDD55"/>
<stop offset="0.1" stop-color="#FFDD55"/>
<stop offset="0.5" stop-color="#FF543E"/>
<stop offset="1" stop-color="#C837AB"/>
</radialGradient>
<clipPath id="clip0_4_37">
<rect width="52" height="52" rx="8" fill="white"/>
</clipPath>
<clipPath id="clip1_4_37">
<rect width="52" height="52" fill="white"/>
</clipPath>
</defs>
</svg>
